{
    "asset" : {
        "generator" : "Khronos glTF Blender I/O v3.2.40",
        "version" : "2.0"
    },
    "scene" : 0,
    "scenes" : [
        {
            "name" : "Scene",
            "nodes" : [
                0
            ]
        }
    ],
    "nodes" : [
        {
            "mesh" : 0,
            "name" : "Sphere"
        }
    ],
    "meshes" : [
        {
            "name" : "Sphere.002",
            "primitives" : [
                {
                    "attributes" : {
                        "POSITION" : 0,
                        "TEXCOORD_0" : 1
                    },
                    "indices" : 2
                }
            ]
        }
    ],
    "accessors" : [
        {
            "bufferView" : 0,
            "componentType" : 5126,
            "count" : 123,
            "max" : [
                1,
                1,
                1.0000001192092896
            ],
            "min" : [
                -0.9999999403953552,
                -1,
                -0.9999998211860657
            ],
            "type" : "VEC3"
        },
        {
            "bufferView" : 1,
            "componentType" : 5126,
            "count" : 123,
            "type" : "VEC2"
        },
        {
            "bufferView" : 2,
            "componentType" : 5123,
            "count" : 672,
            "type" : "SCALAR"
        }
    ],
    "bufferViews" : [
        {
            "buffer" : 0,
            "byteLength" : 1476,
            "byteOffset" : 0
        },
        {
            "buffer" : 0,
            "byteLength" : 984,
            "byteOffset" : 1476
        },
        {
            "buffer" : 0,
            "byteLength" : 1344,
            "byteOffset" : 2460
        }
    ],
    "buffers" : [
        {
            "byteLength" : 3804,
            "uri" : "data:application/octet-stream;base64,"
        }
    ]
}
