{
	"asset":{
		"generator":"Khronos glTF Blender I/O v3.5.30",
		"version":"2.0"
	},
	"scene":0,
	"scenes":[
		{
			"name":"Scene",
			"nodes":[
				0
			]
		}
	],
	"nodes":[
		{
			"mesh":0,
			"name":"Cliff"
		}
	],
	"meshes":[
		{
			"name":"Landscape",
			"primitives":[
				{
					"attributes":{
						"POSITION":0,
						"TEXCOORD_0":1
					},
					"indices":2
				}
			]
		}
	],
	"accessors":[
		{
			"bufferView":0,
			"componentType":5126,
			"count":86,
			"max":[
				0.25311195850372314,
				0.5152192115783691,
				0.5977468490600586
			],
			"min":[
				-0.35158950090408325,
				-0.33217957615852356,
				-0.46892017126083374
			],
			"type":"VEC3"
		},
		{
			"bufferView":1,
			"componentType":5126,
			"count":86,
			"type":"VEC2"
		},
		{
			"bufferView":2,
			"componentType":5123,
			"count":342,
			"type":"SCALAR"
		}
	],
	"bufferViews":[
		{
			"buffer":0,
			"byteLength":1032,
			"byteOffset":0,
			"target":34962
		},
		{
			"buffer":0,
			"byteLength":688,
			"byteOffset":1032,
			"target":34962
		},
		{
			"buffer":0,
			"byteLength":684,
			"byteOffset":1720,
			"target":34963
		}
	],
	"buffers":[
		{
			"byteLength":2404,
			"uri":"data:application/octet-stream;base64,"
		}
	]
}
