{
	"asset":{
		"generator":"Khronos glTF Blender I/O v3.5.30",
		"version":"2.0"
	},
	"scene":0,
	"scenes":[
		{
			"name":"Scene",
			"nodes":[
				0
			]
		}
	],
	"nodes":[
		{
			"mesh":0,
			"name":"Tunnel"
		}
	],
	"meshes":[
		{
			"name":"Tunnel",
			"primitives":[
				{
					"attributes":{
						"POSITION":0,
						"TEXCOORD_0":1
					},
					"indices":2
				}
			]
		}
	],
	"accessors":[
		{
			"bufferView":0,
			"componentType":5126,
			"count":120,
			"max":[
				0.06864003837108612,
				0.06864000856876373,
				0.1441439837217331
			],
			"min":[
				-0.06864003837108612,
				-0.06864000856876373,
				-0.1441439837217331
			],
			"type":"VEC3"
		},
		{
			"bufferView":1,
			"componentType":5126,
			"count":120,
			"type":"VEC2"
		},
		{
			"bufferView":2,
			"componentType":5123,
			"count":324,
			"type":"SCALAR"
		}
	],
	"bufferViews":[
		{
			"buffer":0,
			"byteLength":1440,
			"byteOffset":0,
			"target":34962
		},
		{
			"buffer":0,
			"byteLength":960,
			"byteOffset":1440,
			"target":34962
		},
		{
			"buffer":0,
			"byteLength":648,
			"byteOffset":2400,
			"target":34963
		}
	],
	"buffers":[
		{
			"byteLength":3048,
			"uri":"data:application/octet-stream;base64,"
		}
	]
}
